<?xml version="1.0" encoding="UTF-8"?>
<svg width="500" height="500" viewBox="0 0 500 500" fill="none" xmlns="http://www.w3.org/2000/svg">
  <defs>
    <linearGradient id="bulbGradient" x1="250" y1="100" x2="250" y2="400" gradientUnits="userSpaceOnUse">
      <stop stop-color="#FFD600"/>
      <stop offset="1" stop-color="#FF6A00"/>
    </linearGradient>
    <linearGradient id="brainGradient" x1="150" y1="150" x2="250" y2="400" gradientUnits="userSpaceOnUse">
      <stop stop-color="#FF3A5A"/>
      <stop offset="1" stop-color="#FF6A00"/>
    </linearGradient>
    <radialGradient id="baseGradient" cx="0.5" cy="0.5" r="0.5" fx="0.5" fy="0.5">
      <stop offset="0%" stop-color="#FF3A5A"/>
      <stop offset="100%" stop-color="#2D1A47"/>
    </radialGradient>
  </defs>
  <!-- Radiant lines -->
  <g stroke="#FFD600" stroke-width="10">
    <line x1="250" y1="40" x2="250" y2="0"/>
    <line x1="250" y1="460" x2="250" y2="500"/>
    <line x1="90" y1="250" x2="40" y2="250"/>
    <line x1="410" y1="250" x2="460" y2="250"/>
    <line x1="120" y1="120" x2="80" y2="80"/>
    <line x1="380" y1="120" x2="420" y2="80"/>
    <line x1="120" y1="380" x2="80" y2="420"/>
    <line x1="380" y1="380" x2="420" y2="420"/>
  </g>
  <!-- Bulb right half -->
  <path d="M250 100 Q400 120 350 300 Q340 340 250 400" fill="url(#bulbGradient)" stroke="#FF6A00" stroke-width="8"/>
  <!-- Brain left half -->
  <path d="M250 100 Q100 120 150 300 Q160 340 250 400" fill="url(#brainGradient)" stroke="#FF3A5A" stroke-width="8"/>
  <!-- Brain squiggles -->
  <path d="M200 170 Q180 180 200 200 Q170 210 200 230 Q180 240 210 260 Q190 270 220 290" stroke="#B71C5A" stroke-width="6" fill="none"/>
  <path d="M220 140 Q210 160 230 180 Q210 200 240 210" stroke="#B71C5A" stroke-width="6" fill="none"/>
  <!-- Bulb filament -->
  <path d="M250 180 Q270 220 250 260 Q270 270 250 300 Q270 320 250 340" stroke="#FFD600" stroke-width="6" fill="none"/>
  <!-- Bulb base -->
  <ellipse cx="250" cy="420" rx="50" ry="25" fill="url(#baseGradient)" stroke="#2D1A47" stroke-width="8"/>
  <rect x="200" y="420" width="100" height="30" rx="15" fill="#FF3A5A" stroke="#2D1A47" stroke-width="8"/>
  <rect x="210" y="450" width="80" height="20" rx="10" fill="#FF6A00" stroke="#2D1A47" stroke-width="6"/>
</svg> 